{
    "asset" : {
        "generator" : "Khronos glTF Blender I/O v1.2.75",
        "version" : "2.0"
    },
    "scene" : 0,
    "scenes" : [
        {
            "name" : "Scene",
            "nodes" : [
                0,
                1,
                3,
                4,
                5,
                6
            ]
        }
    ],
    "nodes" : [
        {
            "mesh" : 0,
            "name" : "Player",
            "scale" : [
                0.39319419860839844,
                0.39319419860839844,
                0.39319419860839844
            ]
        },
        {
            "name" : "Light",
            "rotation" : [
                0.16907575726509094,
                0.7558803558349609,
                -0.27217137813568115,
                0.570947527885437
            ],
            "translation" : [
                4.076245307922363,
                5.903861999511719,
                -1.0054539442062378
            ]
        },
        {
            "camera" : 0,
            "name" : "Camera_Orientation",
            "rotation" : [
                -0.7071067690849304,
                0,
                0,
                0.7071067690849304
            ]
        },
        {
            "children" : [
                2
            ],
            "name" : "Camera",
            "rotation" : [
                -0.22833223640918732,
                0.7462853193283081,
                -0.5446141958236694,
                -0.30711233615875244
            ],
            "translation" : [
                -21.072433471679688,
                11.244662284851074,
                -8.214942932128906
            ]
        },
        {
            "mesh" : 1,
            "name" : "Terrain",
            "scale" : [
                14.881501197814941,
                1,
                1
            ],
            "translation" : [
                0,
                -4.308053493499756,
                -20.10723114013672
            ]
        },
        {
            "mesh" : 2,
            "name" : "Bullet",
            "translation" : [
                -14.944849967956543,
                0,
                -52.22108459472656
            ]
        },
        {
            "mesh" : 3,
            "name" : "Monster",
            "translation" : [
                0,
                0,
                -61.13452911376953
            ]
        }
    ],
    "cameras" : [
        {
            "name" : "Camera",
            "orthographic" : {
                "xmag" : 50,
                "ymag" : 50,
                "zfar" : 171.19998168945312,
                "znear" : 0.0010000000474974513
            },
            "type" : "orthographic"
        }
    ],
    "materials" : [
        {
            "doubleSided" : true,
            "emissiveFactor" : [
                1,
                1,
                1
            ],
            "emissiveTexture" : {
                "index" : 0,
                "texCoord" : 0
            },
            "name" : "Material",
            "pbrMetallicRoughness" : {}
        }
    ],
    "meshes" : [
        {
            "name" : "Cube",
            "primitives" : [
                {
                    "attributes" : {
                        "POSITION" : 0,
                        "NORMAL" : 1,
                        "TEXCOORD_0" : 2
                    },
                    "indices" : 3,
                    "material" : 0
                }
            ]
        },
        {
            "name" : "Plane",
            "primitives" : [
                {
                    "attributes" : {
                        "POSITION" : 4,
                        "NORMAL" : 5,
                        "TEXCOORD_0" : 6
                    },
                    "indices" : 7,
                    "material" : 0
                }
            ]
        },
        {
            "name" : "Plane.001",
            "primitives" : [
                {
                    "attributes" : {
                        "POSITION" : 8,
                        "NORMAL" : 9,
                        "TEXCOORD_0" : 10
                    },
                    "indices" : 11,
                    "material" : 0
                }
            ]
        },
        {
            "name" : "Cube.001",
            "primitives" : [
                {
                    "attributes" : {
                        "POSITION" : 12,
                        "NORMAL" : 13,
                        "TEXCOORD_0" : 14
                    },
                    "indices" : 15,
                    "material" : 0
                }
            ]
        }
    ],
    "textures" : [
        {
            "source" : 0
        }
    ],
    "images" : [
        {
            "bufferView" : 4,
            "mimeType" : "image/png",
            "name" : "pico-8"
        }
    ],
    "accessors" : [
        {
            "bufferView" : 0,
            "componentType" : 5126,
            "count" : 481,
            "max" : [
                6.341322898864746,
                0.9424334764480591,
                5.094776153564453
            ],
            "min" : [
                -6.341322898864746,
                -1.360416054725647,
                -3.071019172668457
            ],
            "type" : "VEC3"
        },
        {
            "bufferView" : 1,
            "componentType" : 5126,
            "count" : 481,
            "type" : "VEC3"
        },
        {
            "bufferView" : 2,
            "componentType" : 5126,
            "count" : 481,
            "type" : "VEC2"
        },
        {
            "bufferView" : 3,
            "componentType" : 5123,
            "count" : 783,
            "type" : "SCALAR"
        },
        {
            "bufferView" : 5,
            "componentType" : 5126,
            "count" : 80,
            "max" : [
                2.8305985927581787,
                3.567605972290039,
                0.1957101821899414
            ],
            "min" : [
                -2.8305985927581787,
                -4.577306747436523,
                -19.898202896118164
            ],
            "type" : "VEC3"
        },
        {
            "bufferView" : 6,
            "componentType" : 5126,
            "count" : 80,
            "type" : "VEC3"
        },
        {
            "bufferView" : 7,
            "componentType" : 5126,
            "count" : 80,
            "type" : "VEC2"
        },
        {
            "bufferView" : 8,
            "componentType" : 5123,
            "count" : 132,
            "type" : "SCALAR"
        },
        {
            "bufferView" : 9,
            "componentType" : 5126,
            "count" : 4,
            "max" : [
                0.21933400630950928,
                0,
                2.8585262298583984
            ],
            "min" : [
                -0.21933245658874512,
                0,
                0.03062129020690918
            ],
            "type" : "VEC3"
        },
        {
            "bufferView" : 10,
            "componentType" : 5126,
            "count" : 4,
            "type" : "VEC3"
        },
        {
            "bufferView" : 11,
            "componentType" : 5126,
            "count" : 4,
            "type" : "VEC2"
        },
        {
            "bufferView" : 12,
            "componentType" : 5123,
            "count" : 6,
            "type" : "SCALAR"
        },
        {
            "bufferView" : 13,
            "componentType" : 5126,
            "count" : 352,
            "max" : [
                3.839897394180298,
                1,
                1
            ],
            "min" : [
                -3.839897394180298,
                -1.210193395614624,
                -1.3896921873092651
            ],
            "type" : "VEC3"
        },
        {
            "bufferView" : 14,
            "componentType" : 5126,
            "count" : 352,
            "type" : "VEC3"
        },
        {
            "bufferView" : 15,
            "componentType" : 5126,
            "count" : 352,
            "type" : "VEC2"
        },
        {
            "bufferView" : 16,
            "componentType" : 5123,
            "count" : 582,
            "type" : "SCALAR"
        }
    ],
    "bufferViews" : [
        {
            "buffer" : 0,
            "byteLength" : 5772,
            "byteOffset" : 0
        },
        {
            "buffer" : 0,
            "byteLength" : 5772,
            "byteOffset" : 5772
        },
        {
            "buffer" : 0,
            "byteLength" : 3848,
            "byteOffset" : 11544
        },
        {
            "buffer" : 0,
            "byteLength" : 1566,
            "byteOffset" : 15392
        },
        {
            "buffer" : 0,
            "byteLength" : 155,
            "byteOffset" : 16960
        },
        {
            "buffer" : 0,
            "byteLength" : 960,
            "byteOffset" : 17116
        },
        {
            "buffer" : 0,
            "byteLength" : 960,
            "byteOffset" : 18076
        },
        {
            "buffer" : 0,
            "byteLength" : 640,
            "byteOffset" : 19036
        },
        {
            "buffer" : 0,
            "byteLength" : 264,
            "byteOffset" : 19676
        },
        {
            "buffer" : 0,
            "byteLength" : 48,
            "byteOffset" : 19940
        },
        {
            "buffer" : 0,
            "byteLength" : 48,
            "byteOffset" : 19988
        },
        {
            "buffer" : 0,
            "byteLength" : 32,
            "byteOffset" : 20036
        },
        {
            "buffer" : 0,
            "byteLength" : 12,
            "byteOffset" : 20068
        },
        {
            "buffer" : 0,
            "byteLength" : 4224,
            "byteOffset" : 20080
        },
        {
            "buffer" : 0,
            "byteLength" : 4224,
            "byteOffset" : 24304
        },
        {
            "buffer" : 0,
            "byteLength" : 2816,
            "byteOffset" : 28528
        },
        {
            "buffer" : 0,
            "byteLength" : 1164,
            "byteOffset" : 31344
        }
    ],
    "buffers" : [
        {
            "byteLength" : 32508,
            "uri" : "data:application/octet-stream;base64,"
        }
    ]
}
